<svg width="31" height="30" viewBox="0 0 31 30" fill="none" xmlns="http://www.w3.org/2000/svg">
<path d="M12.7236 4.875H7.07988C6.2877 4.875 5.64551 5.51719 5.64551 6.30938V11.9531C5.64551 12.7453 6.2877 13.3875 7.07988 13.3875H12.7236C13.5158 13.3875 14.158 12.7453 14.158 11.9531V6.30938C14.158 5.51719 13.5158 4.875 12.7236 4.875Z" stroke="#82868C" stroke-width="1.5" stroke-linecap="round" stroke-linejoin="round"/>
<path d="M24.6299 4.875H18.9861C18.194 4.875 17.5518 5.51719 17.5518 6.30938V11.9531C17.5518 12.7453 18.194 13.3875 18.9861 13.3875H24.6299C25.4221 13.3875 26.0643 12.7453 26.0643 11.9531V6.30938C26.0643 5.51719 25.4221 4.875 24.6299 4.875Z" stroke="#82868C" stroke-width="1.5" stroke-linecap="round" stroke-linejoin="round"/>
<path d="M12.7236 16.6125H7.07988C6.2877 16.6125 5.64551 17.2547 5.64551 18.0469V23.6907C5.64551 24.4829 6.2877 25.1251 7.07988 25.1251H12.7236C13.5158 25.1251 14.158 24.4829 14.158 23.6907V18.0469C14.158 17.2547 13.5158 16.6125 12.7236 16.6125Z" stroke="#82868C" stroke-width="1.5" stroke-linecap="round" stroke-linejoin="round"/>
<path d="M24.6299 16.6125H18.9861C18.194 16.6125 17.5518 17.2547 17.5518 18.0469V23.6907C17.5518 24.4829 18.194 25.1251 18.9861 25.1251H24.6299C25.4221 25.1251 26.0643 24.4829 26.0643 23.6907V18.0469C26.0643 17.2547 25.4221 16.6125 24.6299 16.6125Z" stroke="#82868C" stroke-width="1.5" stroke-linecap="round" stroke-linejoin="round"/>
</svg>
