<svg width="31" height="30" viewBox="0 0 31 30" fill="none" xmlns="http://www.w3.org/2000/svg">
<path d="M4.76046 13H19.6176C20.1102 13 20.5825 13.2107 20.9308 13.5858C21.2791 13.9609 21.4747 14.4696 21.4747 15C21.4747 15.5304 21.2791 16.0391 20.9308 16.4142C20.5825 16.7893 20.1102 17 19.6176 17H4.76046C4.26792 17 3.79555 16.7893 3.44727 16.4142C3.09898 16.0391 2.90332 15.5304 2.90332 15C2.90332 14.4696 3.09898 13.9609 3.44727 13.5858C3.79555 13.2107 4.26792 13 4.76046 13V13ZM23.3319 9H4.76046C4.26792 9 3.79555 8.78929 3.44727 8.41421C3.09898 8.03914 2.90332 7.53043 2.90332 7C2.90332 6.46957 3.09898 5.96086 3.44727 5.58579C3.79555 5.21071 4.26792 5 4.76046 5H23.3319C23.8244 5 24.2968 5.21071 24.6451 5.58579C24.9934 5.96086 25.189 6.46957 25.189 7C25.189 7.53043 24.9934 8.03914 24.6451 8.41421C24.2968 8.78929 23.8244 9 23.3319 9V9ZM4.76046 21H27.0462C27.5387 21 28.0111 21.2107 28.3594 21.5858C28.7077 21.9609 28.9033 22.4696 28.9033 23C28.9033 23.5304 28.7077 24.0391 28.3594 24.4142C28.0111 24.7893 27.5387 25 27.0462 25H4.76046C4.26792 25 3.79555 24.7893 3.44727 24.4142C3.09898 24.0391 2.90332 23.5304 2.90332 23C2.90332 22.4696 3.09898 21.9609 3.44727 21.5858C3.79555 21.2107 4.26792 21 4.76046 21Z" fill="#487DE7"/>
</svg>
