<svg width="31" height="30" viewBox="0 0 31 30" fill="none" xmlns="http://www.w3.org/2000/svg">
<path d="M27.1045 22.9219C22.8389 22.9219 22.2764 18.9375 21.7139 15.0938C21.1045 10.9219 20.542 7.03125 15.8545 7.03125C11.167 7.03125 10.6045 10.9688 9.99512 15.0938C9.43262 18.9375 8.87012 22.9219 4.60449 22.9219V21.7031C7.60449 21.7031 8.16699 19.1719 8.77636 14.9531C9.33886 10.875 10.0889 5.8125 15.8545 5.8125C21.6201 5.8125 22.3701 10.875 22.9326 14.9531C23.542 19.1719 24.1045 21.7031 27.1045 21.7031V22.9219Z" fill="#82868C"/>
<path d="M15.8545 25.5469C14.0732 25.5469 12.5732 24.0938 12.5732 22.2656H13.792C13.792 23.3906 14.6826 24.2812 15.8076 24.2812C16.9326 24.2812 17.8232 23.3906 17.8232 22.2656H19.042C19.1357 24.0938 17.6357 25.5469 15.8545 25.5469Z" fill="#82868C"/>
<path d="M4.60449 21.6562H27.1045V22.9687H4.60449V21.6562Z" fill="#82868C"/>
<path d="M17.167 5.76562C17.167 6.51562 16.5576 6.75 15.8545 6.75C15.1514 6.75 14.542 6.46874 14.542 5.76562C14.542 5.06249 15.1514 4.45312 15.8545 4.45312C16.5576 4.45312 17.167 5.01562 17.167 5.76562Z" fill="#82868C"/>
</svg>
